<?xml version="1.0" encoding="utf-8" ?><svg xmlns="http://www.w3.org/2000/svg" xmlns:xlink="http://www.w3.org/1999/xlink" width="1024" height="1024" viewBox="0 0 1024 1024"><path fill="#D3D3D3" d="M0 0L1024 0L1024 1024L0 1024L0 0Z"/><path d="M271.774 76.9569C275.256 76.4346 280.113 76.5381 283.713 76.5955C296.322 76.7965 309.145 76.0496 321.713 76.8539C325.049 77.0674 330.113 79.3905 333.533 80.1775C334.491 77.6004 337.299 77.7537 339.8 77.7282C356.551 77.5578 373.251 78.1218 390.015 77.9945C511.823 76.9745 633.636 76.6918 755.447 77.1465L860.475 77.0917C874.951 77.145 889.538 76.9764 903.928 77.163C924.076 77.4242 942.581 93.5993 947.056 113.01C949.267 122.6 948.557 135.028 948.574 145.098L948.457 190.115L947.999 235.635C947.941 244.397 948.218 254.781 947.846 263.405C955.123 265.102 962.765 267.573 969.994 269.662L1000.62 278.346L945.142 450.95L946.617 449.637C947.5 450.305 947.771 450.833 947.795 452.171C947.944 460.19 948.084 468.462 948.133 476.458L948.287 528.5L948.481 708.5L948.389 842.41L948.453 881.139C948.479 894.501 949.88 909.198 943.625 921.572C937.641 933.41 926.043 943.007 912.728 945.813C887.151 949.324 858.433 946.548 832.506 946.974C818.273 947.208 804.657 946.704 790.5 946.213C790.181 945.987 789.862 945.761 789.543 945.535L788.983 946.298C786.794 946.579 773.818 946.634 772.26 946.054C766.351 946.967 759.473 945.723 754.231 946.131C749.159 947.212 696.787 947.03 692.483 945.87C662.813 937.873 625.734 926.201 596.26 917.409L394.291 856.747L151.078 784.082L69.7902 760.188C58.0119 756.696 44.5945 753.205 33.0987 749.274C36.0993 737.288 42.4742 719.744 46.3686 707.488L78.0074 608.564L77.009 608.104C74.5582 605.114 75.3354 530.742 75.2192 520.519C74.1809 429.158 75.0078 337.7 75.03 246.328L75.0606 163.08C75.042 153.383 75.127 143.686 75.3155 133.991C75.3999 128.98 75.333 121.93 76.0306 117.085C77.4591 107.17 81.9982 97.9644 88.994 90.7946C106.492 73.1436 125.64 77.3907 148.055 76.9616C150.199 76.9206 152.358 76.9618 154.504 76.9591L247.88 77.0597C249.388 76.1482 264.08 76.4701 266.679 76.8204C269.139 77.2191 269.355 77.2972 271.774 76.9569Z"/><path fill="white" d="M333.533 80.1775C334.491 77.6004 337.299 77.7537 339.8 77.7282C356.551 77.5578 373.251 78.1218 390.015 77.9945C511.823 76.9745 633.636 76.6918 755.447 77.1465L860.475 77.0917C874.951 77.145 889.538 76.9764 903.928 77.163C924.076 77.4242 942.581 93.5993 947.056 113.01C949.267 122.6 948.557 135.028 948.574 145.098L948.457 190.115L947.999 235.635C947.941 244.397 948.218 254.781 947.846 263.405L576.737 153.106C530.133 139.437 483.615 125.476 437.186 111.224C402.562 101.12 368.01 90.7712 333.533 80.1775Z"/><path fill="white" d="M78.0074 608.564L77.009 608.104C74.5582 605.114 75.3354 530.742 75.2192 520.519C74.1809 429.158 75.0078 337.7 75.03 246.328L75.0606 163.08C75.042 153.383 75.127 143.686 75.3155 133.991C75.3999 128.98 75.333 121.93 76.0306 117.085C77.4591 107.17 81.9982 97.9644 88.994 90.7946C106.492 73.1436 125.64 77.3907 148.055 76.9616C150.199 76.9206 152.358 76.9618 154.504 76.9591L247.88 77.0597L78.0074 608.564Z"/><path fill="white" d="M945.142 450.95L946.617 449.637C947.5 450.305 947.771 450.833 947.795 452.171C947.944 460.19 948.084 468.462 948.133 476.458L948.287 528.5L948.481 708.5L948.389 842.41L948.453 881.139C948.479 894.501 949.88 909.198 943.625 921.572C937.641 933.41 926.043 943.007 912.728 945.813C887.151 949.324 858.433 946.548 832.506 946.974C818.273 947.208 804.657 946.704 790.5 946.213C790.181 945.987 789.862 945.761 789.543 945.535C800.741 912.245 810.75 878.05 821.512 844.596C863.4 713.594 904.61 582.377 945.142 450.95Z"/><path fill="white" d="M745.33 882.796C746.667 883.029 747.972 883.314 749.278 883.684C754.303 885.108 784.916 893.039 786.14 896.041C786.8 897.659 786.394 899.777 786.079 901.436C785.132 906.427 783.09 911.493 781.576 916.357L772.26 946.054C766.351 946.967 759.473 945.723 754.231 946.131C749.24 944.424 726.756 940.041 728.047 934.176C730.449 923.265 738.444 889.528 745.33 882.796Z"/><path fill="white" d="M271.774 76.9569C278.329 78.6828 286.604 81.4517 293.372 83.3867C287.021 102.042 281.13 122.459 275.414 141.383C266.718 138.943 258.082 136.294 249.513 133.439C255.18 115.477 260.684 94.0492 266.679 76.8204C269.139 77.2191 269.355 77.2972 271.774 76.9569Z"/><path fill="white" d="M295.354 721.437C273.119 713.981 247.694 707.033 225.068 700.292C190.34 689.804 155.54 679.553 120.672 669.54C108.886 666.226 100.716 662.17 94.5969 651.125C84.8688 633.565 95.0914 615.028 100.321 598.146C108.204 572.696 116.524 547.678 124.75 522.47L151.478 439.966L195.342 303.461L219.472 227.813C222.549 218.175 225.669 208.478 228.749 198.849C232.718 186.439 239.778 178.1 251.131 171.78C270.15 161.194 288.073 170.282 306.986 175.991L369.617 194.958L504.411 236.199C525.806 242.739 547.728 249.019 568.954 255.812C587.909 261.719 606.927 267.426 626.003 272.932C632.86 274.931 646.209 279.267 652.77 280.658L850.13 339.089C863.435 343.281 876.789 347.313 890.19 351.185C908.174 356.401 927.86 359.388 937.516 378.006C944.299 391.084 942.986 402.116 938.819 415.748L845.34 712.129L818.943 796.511C816.55 804.192 813.858 812.262 811.647 819.966C806.974 836.254 803.154 848.226 787.12 856.665C779.031 860.934 769.768 862.446 760.741 860.969C751.392 859.45 725.061 850.946 715.166 847.966L626.503 821.118L384.977 748.365C356.092 738.851 324.646 729.923 295.354 721.437Z"/><path fill="#D3D3D3" d="M418.513 520.548C420.587 519.697 424.307 518.373 425.851 516.828C428.915 513.765 430.076 508.832 432.322 505.202C436.662 498.189 441.012 491.214 445.141 484.077C450.123 475.948 457.271 462.878 463.407 455.807C467.123 459.208 470.164 462.069 473.001 466.286C473.147 479.296 469.597 493.199 468.58 506.23C467.966 514.106 466.642 518.85 475.609 521.186C487.503 518.671 508.78 501.687 521.583 499.618C523.763 499.265 529.467 502.47 531.74 503.693C519.754 522.367 507.467 541.323 495.707 560.166C494.818 561.591 494.85 562.881 495.298 564.451C492.04 564.587 487.594 564.442 484.672 564.676C484.208 564.583 482.388 564.509 481.809 564.472C481.895 569.469 481.848 575.697 482.123 580.595C481.146 584.884 465.033 609.833 461.888 612.063L461.624 640.852L450.506 640.896C448.075 646.604 439.674 659.994 436.202 665.71C425.474 683.538 414.547 701.245 403.424 718.829C398.927 725.939 388.306 741.646 384.977 748.365C356.092 738.851 324.646 729.923 295.354 721.437C300.398 715.426 305.732 706.558 310.015 699.762C317.29 688.242 324.446 676.646 331.482 664.978C333.873 661.031 343.585 645.383 344.787 641.991L344.33 641.492C348.199 640.21 361.739 642.125 365.918 640.937L368.486 641.49C369.009 616.367 368.722 589.913 368.898 564.626C375.872 565.123 384.367 564.832 391.363 564.68L407.714 538.137C411.034 532.699 415.001 525.709 418.513 520.548Z"/><path fill="red" d="M391.363 564.68C399.842 564.882 408.325 564.87 416.803 564.643C416.763 569.926 416.778 575.21 416.847 580.493C406.936 580.48 396.805 580.363 386.913 580.47L386.948 594.497L415.714 594.501C415.584 599.726 415.534 604.953 415.566 610.18C406.197 610.176 396.308 610.009 386.979 610.232L387.011 626.026C397.842 626.034 408.876 625.934 419.69 626.062L419.651 641.106L386.084 641.158C382.224 641.173 372.07 641.043 368.486 641.49C369.009 616.367 368.722 589.913 368.898 564.626C375.872 565.123 384.367 564.832 391.363 564.68Z"/><path fill="red" d="M423.14 564.577C434.874 564.765 446.609 564.865 458.345 564.878C465.289 564.909 475.08 565.196 481.809 564.472C481.895 569.469 481.848 575.697 482.123 580.595C481.146 584.884 465.033 609.833 461.888 612.063L461.624 640.852L450.506 640.896L443.142 640.876C443.454 621.378 443.567 599.88 443.2 580.426C436.69 580.199 429.76 580.314 423.211 580.328C423.239 575.078 423.216 569.827 423.14 564.577Z"/><path fill="white" d="M461.904 580.46C468.644 580.449 475.384 580.494 482.123 580.595C481.146 584.884 465.033 609.833 461.888 612.063L461.904 580.46Z"/><path fill="white" d="M568.954 255.812C587.909 261.719 606.927 267.426 626.003 272.932C632.86 274.931 646.209 279.267 652.77 280.658C651.111 284.043 648.01 287.928 645.895 291.23C641.948 297.39 638.12 303.636 633.982 309.664C605.426 300.078 575.567 294.934 545.449 294.411C549.408 283.962 566.022 264.502 568.954 255.812Z"/><path fill="red" d="M340.722 564.644C347.907 564.787 355.093 564.784 362.278 564.635C353.96 574.365 345.669 586.719 338.192 597.294C343.861 607.138 349.672 616.449 356.008 625.865C359.342 630.819 362.298 636.159 365.918 640.937C361.739 642.125 348.199 640.21 344.33 641.492C341.415 639.864 327.053 615.005 324.396 610.605C322.131 613.421 321.537 614.141 319.885 617.416C320.218 625.851 320.406 633.014 320.414 641.539C314.186 641.499 307.958 641.53 301.731 641.632L301.935 564.937L320.069 565.07C320.198 575.497 320.18 585.925 320.016 596.352C324.522 586.795 334.388 573.473 340.722 564.644Z"/><path fill="red" d="M495.298 564.451C499.637 567.379 511.934 589.57 514.71 595.021C521.321 585.199 527.68 574.479 534.536 564.927C538.194 564.898 542.64 564.976 546.209 564.656C541.874 571.389 537.411 578.039 532.822 584.602C529.425 589.448 523.936 596.913 521.075 601.977L547.662 640.881L534.633 640.919C528.159 629.888 521.617 619.741 514.778 608.955C508.778 618.041 500.023 632.855 494.109 640.882L482.864 640.874C490.062 628.66 500.556 613.497 508.755 601.652L493.958 578.443C491.718 574.944 487.264 567.65 484.672 564.676C487.594 564.442 492.04 564.587 495.298 564.451Z"/><path fill="#D3D3D3" d="M521.069 300.709C524.884 300.409 530.387 300.533 534.328 300.504C524.908 317.414 513.268 334.291 503.952 351.417C502.05 351.426 500.15 351.491 498.252 351.613C410.272 357.338 332.016 388.227 261.644 440.545C225.137 467.687 190.851 498.096 160.871 532.323C157.984 535.275 155.583 537.732 152.961 540.904C161.683 516.243 196.753 473.017 214.251 453.667C277.242 384.007 360.026 330.105 452.269 309.314C476.981 303.744 496.232 301.927 521.069 300.709Z"/><path fill="#FFD700" d="M521.024 368.918C522.169 368.833 525.386 368.74 526.24 369.715C534.69 379.359 541.5 405.347 550.343 413.011C564.552 416.35 582.5 416.914 596.982 420.484C598.929 420.964 599.617 421.341 600.62 423.073C601.253 427.664 596.171 430.88 593.498 433.955C585.472 443.186 570.585 454.29 564.706 464.733C566.196 476.468 568.149 488.144 569.889 499.841C570.46 503.679 572.098 510.476 568.759 513.162C567.228 513.644 565.899 513.751 564.374 513.161C551.057 508.008 538.049 500.51 525.067 494.736C523.208 494.178 521.942 493.833 519.864 494.142C510.489 495.534 481.805 517.282 474.061 513.86C472.468 511.192 473.309 505.918 473.691 502.85C475.318 489.767 477.33 476.679 478.281 463.526C472.929 456.319 445.935 430.469 444.959 425.357C445.341 424.005 445.881 422.57 447.372 421.942C457.079 417.851 486.451 416.076 494.588 412.833C501.955 409.897 513.253 377.087 521.024 368.918Z"/><path fill="#D3D3D3" d="M637.178 316.855C642.834 318.995 648.544 320.969 654.177 323.191C734.113 354.129 802.735 408.673 850.912 479.567C860.975 494.694 870.294 510.458 877.549 527.153C872.976 522.433 867.793 516.328 863.467 511.307C858.903 506.557 854.451 500.856 849.892 496.306C839.925 486.356 829.386 475.959 818.928 466.567C774.071 426.855 721.971 396.175 665.486 376.211C654.964 372.573 644.331 369.264 633.603 366.291C625.512 364.115 617.273 362.387 609.224 360.181C619.048 346.308 628.033 331.187 637.178 316.855Z"/><path fill="#FFD700" d="M648.175 419.747C648.387 419.777 650.13 420.181 650.145 420.196C656.222 426.387 661.374 439.807 666.56 446.245C672.472 448.483 696.387 449.046 697.365 454.75C695.546 459.185 680.399 473.335 675.945 478.802C676.817 485.029 682.205 507.157 679.271 511.243C678.072 511.77 677.306 512.161 675.923 511.673C666.772 508.44 658.184 502.226 648.859 499.437C640.432 501.833 629.241 510.276 620.817 513.448C619.627 513.896 619.388 513.536 618.55 513.042C616.02 507.865 620.803 487.228 621.764 479.989C615.779 472.596 607.812 466.253 601.504 459.216C600.276 457.846 600.195 456.816 600.369 455.225C603.326 451.397 625.359 448.649 631.786 447.262C637.283 439.35 641.8 426.462 648.175 419.747Z"/><path fill="#FFD700" d="M394.769 420.815C395.03 420.878 395.294 420.933 395.552 421.005C399.273 422.048 409.325 442.305 411.839 446.671C418.394 448.398 441.172 450.972 444.129 455.043C444.234 456.525 444.22 457.277 443.188 458.553C437.171 465.993 428.817 471.787 422.988 479.405C428.837 519.066 430.021 515.579 396.709 498.523C391.124 496.674 371.233 513.786 365.477 509.29C363.491 504.975 366.646 496.191 367.204 491.321C367.674 487.228 368.089 482.745 368.963 478.761C346.089 453.808 333.337 454.643 378.096 447.337C383.556 439.886 388.664 426.691 394.769 420.815Z"/><path fill="#D3D3D3" d="M543.035 300.912C571.276 300.906 602.561 308.174 629.535 316.015C623.615 325.415 617.634 334.777 611.594 344.101C608.972 348.151 606.189 352.603 603.349 356.522C602.452 357.759 602.32 357.442 600.89 357.498C567.182 351.323 546.884 350.443 513.248 350.367C519.898 336.857 534.636 314.238 543.035 300.912Z"/><path fill="red" d="M623.08 564.578C635.219 564.912 655.249 563.415 666.187 566.58C685.517 572.171 687.346 600.335 667.629 609.607C672.533 619.017 680.309 631.439 685.903 640.751L671.75 640.733L664.633 640.718C661.248 633.233 653.835 620.204 649.756 612.758C647.131 613.175 644.558 613.446 641.92 613.742L641.886 640.802L623.053 640.827L623.08 564.578Z"/><path fill="white" d="M641.833 579.262C647.362 578.955 654.271 578.669 659.188 581.519C665.627 585.251 663.931 591.306 659.776 596.22C654.72 599.657 648.011 599.107 641.906 599.262C641.78 592.596 641.756 585.929 641.833 579.262Z"/><path fill="red" d="M554.016 564.555C573.357 564.853 607.364 558.849 612.744 583.024C616.975 602.034 605.61 612.513 588.535 615.934C583.7 616.534 577.599 616.228 572.635 616.137L572.537 640.876C566.39 640.841 560.243 640.861 554.096 640.936L554.016 564.555Z"/><path fill="white" d="M572.595 578.909C578.352 578.881 585.941 578.507 590.81 582.032C596.637 586.25 595.266 593.133 591.384 598.252C585.372 602.779 579.898 602.01 572.559 602.083L572.595 578.909Z"/><path fill="#D3D3D3" d="M507.058 356.975C530.06 355.937 577.356 358.252 598.951 364.888C589.479 376.635 581.579 390.403 573.112 402.909C571.427 405.399 570.011 407.915 568.068 410.24C562.412 409.669 557.069 409.132 551.515 407.875C548.572 401.255 544.516 394.047 541.237 387.357C537.883 380.777 533.064 366.885 527.26 363.492C524.419 361.831 521.553 362.95 518.685 363.885C509.417 373.101 502.004 396.124 494.027 406.896C492.253 409.291 477.546 410.428 473.473 410.509C476.122 405.35 482.872 394.997 486.153 389.819C492.865 379.225 500.014 367.227 507.058 356.975Z"/><path fill="red" d="M692.152 564.53C708.586 564.795 725.023 564.889 741.459 564.811C741.307 570.023 741.27 575.368 741.182 580.591L710.741 580.501C710.66 584.998 710.763 589.651 710.804 594.161L739.874 594.18L739.992 609.926C735.776 609.893 713.256 609.23 710.908 610.574L710.694 611.875L710.816 624.977C721.315 625.07 731.814 624.947 742.308 624.608L742.245 640.617L692.232 640.656C691.432 616.644 692.132 588.768 692.152 564.53Z"/><path fill="red" d="M836.749 563.198C847.593 562.474 855.083 563.893 865.308 567.025C863.97 572.376 862.738 577.218 861.102 582.502C854.936 580.436 843.102 577.055 836.991 578.866C823.297 582.923 833.753 590.406 841.53 592.445C851.77 595.128 867.308 603.247 867.87 615.172C868.786 634.613 855.928 639.579 839.749 641.434C830.194 641.82 820.646 640.521 811.542 637.596C811.498 631.921 811.569 626.245 811.754 620.573C816.743 622.514 822.705 624.718 828.082 625.206C833.52 625.699 847.422 627.131 848.336 619.357C845.717 608.838 811.817 607.729 811.034 588.633C810.303 570.777 821.438 564.675 836.749 563.198Z"/><path fill="red" d="M778.691 563.222C788.796 563.196 794.193 563.48 803.87 566.51C802.531 571.99 801.181 577.284 800.193 582.845C792.362 579.87 776.472 574.971 769.512 582.253C764.646 587.345 777.572 591.909 781.01 593.156C794.464 598.036 809.478 606.723 804.337 623.695C800.176 638.652 787.215 641.196 773.709 641.541C764.249 641.151 758.453 640.333 749.457 637.686L749.429 620.321C756.472 623.406 783.996 631.28 786.031 619.915C784.183 612.056 763.973 608.642 756.495 601.913C744.38 591.012 747.352 573.975 761.511 566.473C766.141 564.02 773.245 563.488 778.691 563.222Z"/><path fill="#FFD700" d="M742.228 449.674C746.059 450.343 753.133 463.834 756.379 468.213C761.445 469.588 776.191 470.682 778.403 473.764C778.288 477.157 767.408 487.739 764.193 491.728C765.002 496.242 768.389 510.991 765.752 514.079C763.108 514.811 749.2 508.754 745.112 507.322C741.726 505.798 727.917 517.308 722.87 515.131C721.609 512.649 723.388 496.069 723.617 491.88C720.678 488.884 709.2 479.145 709.256 475.651C710.787 473.04 725.863 470.657 730.318 469.26L730.979 469.05C735.067 463.406 738.001 455.601 742.228 449.674Z"/><path fill="red" d="M272.338 563.687C279.972 562.954 287.684 564.748 294.864 567.118C294.026 572.218 292.972 577.279 291.704 582.289C281.403 577.93 265.085 577.714 258.757 588.266C252.746 598.289 253.176 617.595 264.684 623.665C273.187 628.15 283.152 626.546 291.798 624.023C292.057 627.355 292.787 631.318 293.326 634.676C293.774 636.235 294.256 637.147 293.678 638.622C292.426 640.105 286.032 641.779 283.942 642.072C261.225 645.393 238.679 636.978 235.906 611.636C233 585.071 245.423 566.632 272.338 563.687Z"/><path fill="#FFD700" d="M301.054 449.262C301.592 449.392 302.13 449.521 302.668 449.651C307.272 454.28 311.146 463.693 314.993 469.173C319.035 469.527 334.245 471.377 336.117 474.593C335.736 477.958 324.846 487.343 321.342 491.766L321.044 492.15C322.069 496.446 325.415 510.561 321.755 513.288C318.32 513.531 306.431 507.089 302.128 505.129C296.646 503.321 283.575 516.8 279.515 512.526C278.206 508.3 280.411 496.082 281.27 491.273C276.967 485.965 270.743 480.3 265.898 474.796C272.533 471.262 281.495 470.287 288.979 469.12C292.082 463.889 297.73 453.628 301.054 449.262Z"/><path fill="red" d="M142.071 565.103L201.546 564.979L201.542 580.79C194.649 580.742 187.757 580.745 180.864 580.798C180.668 594.218 180.876 608.163 180.89 621.625L180.899 641.542L162.097 641.507C161.731 621.703 162.073 600.512 162.083 580.609L142.104 580.563L142.071 565.103Z"/><path fill="red" d="M208.003 565.004C214.109 565.106 220.363 565.062 226.482 565.087L226.435 641.478C220.282 641.31 213.822 641.436 207.642 641.471L208.003 565.004Z"/><path fill="white" d="M642.227 191.566C646.872 191.172 660.993 194.956 665.961 196.8C672.845 199.354 704.638 205.707 707.234 212.361C711 222.012 701.103 245.357 698.203 255.606C696.898 260.258 692.538 262.829 688.373 264.438C686.623 264.641 684.484 264.753 682.781 264.28C666.574 259.786 650.31 254.593 634.123 250.093C616.525 245.2 623.01 232.407 626.261 219.505C627.945 212.825 630.049 205.853 632.609 199.459C634.554 194.6 637.667 193.247 642.227 191.566Z"/><path fill="white" d="M850.947 253.583C856.638 253.09 900.418 266.747 908.856 269.417C911.437 270.662 914.732 271.623 915.723 274.482C918.619 282.841 914.75 291.44 912.472 299.569C910.682 305.953 908.597 312.986 906.156 319.222C904.339 323.861 901.291 325.445 896.814 327.138C891.957 327.288 844.86 312.222 836.831 309.667C834.848 309.036 831.831 305.585 831.213 303.426C830.63 301.391 830.379 297.223 830.98 294.954C833.993 283.598 837.105 270.306 841.635 259.581C843.22 255.828 847.567 254.512 850.947 253.583Z"/><path fill="white" d="M539.663 159.646C546.912 160.563 556.681 164.606 563.892 166.784C573.091 169.564 590.785 173.191 598.484 177.768C600.894 179.202 602.639 182.016 603.223 184.729C604.374 190.078 595.272 222.18 591.977 226.997C589.326 230.872 585.715 232.144 581.252 232.848C573.827 232.094 530.937 219.85 524.504 216.387C521.342 214.685 519.412 213.107 518.399 209.589C517.653 206.999 517.518 204.388 517.8 201.716C518.498 195.124 525.034 172.697 528.304 167.089C530.84 162.74 534.962 160.84 539.663 159.646Z"/><path fill="white" d="M544.297 824.07C545.693 823.956 547.098 824.015 548.479 824.245C553.53 825.042 566.413 829.315 572.033 830.9C582.2 833.846 591.89 836.681 601.963 840.039C617.171 845.109 608.446 859.368 605.817 870.236C604.291 876.542 601.602 883.357 599.463 889.485C597.951 893.812 594.588 895.178 590.669 896.733C589.122 896.938 587.18 896.733 585.676 896.317C567.341 891.222 548.793 885.72 530.595 880.25C522.02 876.875 524.331 866.598 526.505 860.136C529.959 849.87 532.002 839.805 536.253 829.941C537.842 826.252 540.749 825.152 544.297 824.07Z"/><path fill="white" d="M440.926 792.58C444.927 792.444 492.435 807.016 499.529 809.368C503.519 810.691 504.905 814.103 506.362 817.706C505.605 825.421 497.057 851.603 493.726 859.887C492.536 862.847 488.412 864.471 485.412 865.346C469.971 864.343 441.435 852.54 425.554 848.153C416.457 845.64 419.775 831.509 422.873 824.959C428.52 813.018 426.011 796.413 440.926 792.58Z"/><path fill="white" d="M648.758 855.592C653.798 855.259 665.17 858.326 670.346 860.315C679.145 863.697 711.702 870.363 714.854 877.296C717.793 883.763 707.097 911.767 704.91 919.568C703.559 924.387 700.153 925.994 695.804 927.856C693.046 928.23 690.254 927.693 687.606 926.879C670.947 921.737 654.13 917.433 637.587 911.906C625.808 907.971 629.164 898.513 632.028 889.286C634.859 880.167 637.203 870.805 640.681 861.929C642.237 857.957 645.05 856.883 648.758 855.592Z"/><path fill="white" d="M434.51 128.523C448.344 129.444 476.349 141.594 490.936 145.096C497.183 146.596 499.497 153.441 497.985 159.403C495.069 170.905 491.63 183.231 487.196 194.268C485.555 198.351 480.766 200.077 476.908 201.213C462.868 200.361 435.972 188.506 421.254 184.875C406.848 180.451 413.827 163.764 417.237 154.142C421.632 141.739 421.032 132.743 434.51 128.523Z"/><path fill="white" d="M336.408 760.576C338.952 760.996 341.94 761.83 344.415 762.639C360.852 767.979 377.559 771.979 393.927 777.505C403.797 780.331 401.793 789.577 399.354 797.411C396.305 807.208 393.617 818.08 389.516 827.545C387.923 831.22 384.568 832.726 380.944 833.825C367.301 833.138 335.664 820.072 321.253 816.424C310.147 812.693 317.557 794.69 320.135 787.303C324.248 775.519 323.702 764.541 336.408 760.576Z"/><path fill="white" d="M746.818 223.1C748.667 222.87 750.441 222.82 752.268 223.29C769.059 227.619 785.618 233.138 802.315 237.862C812.865 240.847 813.726 247.682 810.811 257.227C807.856 266.897 805.334 276.795 801.981 286.349C800.235 291.324 796.808 292.971 792.361 294.9C782.49 295.903 755.845 284.399 744.688 282.355C740.349 281.56 729.772 277.398 728.012 273.193C726.185 268.829 727.542 261.415 729.037 256.928C731.661 248.022 733.533 238.5 737.336 230.002C739.354 225.483 742.508 224.5 746.818 223.1Z"/><path fill="white" d="M128.264 699.098C134.799 699.755 180.513 713.289 187.029 716.374C189.226 717.414 191.523 718.478 192.3 720.964C193.103 723.531 193.033 726.401 192.648 729.034C191.714 735.411 184.496 761.14 181.662 766.362C179.829 769.741 176.662 770.918 173.169 771.969C166.695 771.348 116.8 756.516 111.519 753.354C109.817 752.334 109.246 751.254 108.826 749.369C108.237 746.721 108.361 744.022 108.789 741.362C109.765 735.296 117.655 707.589 120.553 703.408C122.439 700.687 125.159 699.758 128.264 699.098Z"/><path fill="white" d="M331.02 97.1184C336.613 97.4061 380.728 111.054 387.971 114.7C389.744 115.784 392.466 117.572 392.64 119.965C393.628 133.583 386.291 150.348 381.784 163.176C380.644 166.422 374.719 168.465 371.923 169.06C363.402 167.977 319.363 154.993 312.847 151.17C310.635 149.872 309.728 148.214 309.132 145.754C308.583 143.488 308.595 141.126 308.918 138.828C309.85 132.19 316.819 108.026 320.196 102.823C322.682 98.9942 326.802 97.8596 331.02 97.1184Z"/><path fill="white" d="M231.819 730.023C235.905 729.764 254.614 735.749 259.272 737.362C267.528 740.219 291.711 744.804 296.418 751.555C297.832 757.839 294.867 765.04 293.057 771.104C290.633 779.227 288.59 787.555 285.576 795.467C284.031 799.521 281.084 800.487 277.353 801.888C269.471 802.913 237.315 791.011 227.956 788.84C224.689 788.082 213.757 784.401 212.763 781.125C211.401 775.938 213.263 766.811 215.474 761.762C220.412 750.486 219.199 734.743 231.819 730.023Z"/><path fill="#D3D3D3" d="M939.385 277.722L946.199 279.702C954.716 282.004 971.526 286.154 978.886 289.347C974.057 307.641 967.164 330.264 961.183 348.243L946.568 343.923C938.363 341.344 930.094 338.971 921.77 336.804C922.431 334.136 923.242 331.522 924.097 328.911C929.643 311.979 934.35 294.811 939.385 277.722Z"/><path fill="white" d="M939.385 277.722L946.199 279.702C946.616 301.212 946.19 322.578 946.568 343.923C938.363 341.344 930.094 338.971 921.77 336.804C922.431 334.136 923.242 331.522 924.097 328.911C929.643 311.979 934.35 294.811 939.385 277.722Z"/><path fill="white" d="M72.9325 681.208C78.0025 682.47 87.0322 683.326 89.8724 687.791C91.1356 689.777 90.0727 694.694 89.2049 697.246C84.6607 710.61 81.5494 725.287 76.2692 738.272C75.8943 739.194 73.3874 740.544 72.514 741.029C68.6963 741.827 59.8843 738.316 55.1885 737.113C60.6867 718.4 67.1984 699.911 72.9325 681.208Z"/></svg>