<?xml version="1.0" encoding="utf-8" ?><svg xmlns="http://www.w3.org/2000/svg" xmlns:xlink="http://www.w3.org/1999/xlink" width="1024" height="1024" viewBox="0 0 1024 1024"><path fill="#FEFEFE" d="M0 0L1024 0L1024 1024L0 1024L0 0Z"/><path d="M74.0869 70.1473C78.0336 69.8892 89.5899 71.467 93.9829 71.9967L138.167 77.5642C146.621 111.779 188.846 123.174 214.257 99.1335C217.542 96.0263 219.69 92.6531 222.093 88.8399C239.542 91.4359 257.976 93.1787 275.62 95.3167L367.509 106.696L430.953 114.645C441.306 115.918 453.276 117.647 463.566 118.358C470.449 118.833 480.66 118.545 487.776 118.543C501.679 118.568 515.582 118.508 529.485 118.363C559.12 118.096 588.756 118.013 618.392 118.114L949.944 118.601L949.861 144.754C943.907 145.978 939.614 147.462 934.367 150.71C923.582 157.516 915.942 168.328 913.13 180.767C910.196 193.588 912.512 207.05 919.563 218.154C926.899 229.541 936.561 235.471 949.517 238.363L949.413 266.159C916.141 270.976 902.17 312.192 919.077 339.161C926.438 350.905 936.213 355.843 949.285 358.847C948.769 366.573 949.033 377.084 948.775 385.172C943.552 386.361 939.433 387.629 934.814 390.403C924.099 396.952 916.479 407.547 913.68 419.789C909.202 438.72 916.049 459.053 932.017 470.434C938.013 474.708 942.628 476.101 949.688 477.757C949.568 486.599 949.527 495.442 949.565 504.284C941.885 505.872 935.813 507.508 929.901 512.878C900.472 539.603 908.874 586.614 949.511 595.057C949.696 604.295 949.728 613.536 949.607 622.775C943.748 624.088 939.044 625.67 933.938 628.91C923.185 635.751 915.628 646.623 912.964 659.087C907.163 685.458 922.606 708.582 948.771 714.321C949.182 721.683 948.616 733.246 948.482 740.836C943.892 742.131 941.066 743.083 936.883 745.482C925.94 751.89 917.982 762.373 914.753 774.636C911.28 787.676 913.125 801.561 919.883 813.241C926.43 824.431 936.497 830.91 948.854 834.083C949.279 842.195 948.946 853.1 948.941 861.422C945.88 862.283 942.967 863.124 940.077 864.407C917.355 874.491 905.514 903.79 916.389 926.526C922.589 939.49 931.289 946.567 944.623 951.514C947.116 952.187 947.379 951.995 948.6 954.294L948.177 955.152C945.428 956.12 893.762 948.956 886.767 948.395C886.709 948.115 886.65 947.835 886.591 947.554C884.069 935.679 876.812 925.346 866.499 918.943C855.957 912.433 843.243 910.429 831.211 913.383C817.526 916.649 808.986 924.429 801.862 936.154C783.603 934.913 760.476 931.286 741.879 929.005L598.206 910.795C588.218 909.623 578.238 908.389 568.266 907.093C564.97 906.665 561.592 906.286 558.314 905.782C549.379 904.408 540.474 904.792 531.443 904.812L497.34 904.886L394.26 904.931L73.5989 904.519L73.4953 874.959C108.147 866.828 120.721 827.146 99.657 798.847C94.1515 791.451 83.0693 784.25 73.7045 783.297C73.6266 773.969 73.6419 764.639 73.7503 755.311C79.2923 753.627 83.8425 752.185 88.7549 748.975C110.539 734.743 115.94 703.757 101.793 682.293C94.814 671.704 85.8191 666.259 73.5724 663.672C73.5341 655.114 73.577 646.556 73.7011 637.999C78.4834 636.563 82.1889 635.082 86.4762 632.435C97.1926 625.832 104.792 615.185 107.552 602.905C113.473 577.464 99.8399 551.172 73.5247 545.316C73.4998 536.734 73.5915 527.475 73.2351 518.953C80.1933 517.056 85.4941 515.125 91.2449 510.642C101.203 502.919 107.667 491.541 109.204 479.032C112.041 455.848 98.201 430.182 73.5573 427.208C73.4948 418.089 73.4953 408.97 73.5587 399.851C79.4934 398.708 84.6009 396.796 89.6857 393.454C99.7977 386.709 106.785 376.194 109.087 364.258C114.315 338.251 100.63 311.42 73.4119 306.316C73.1713 297.496 73.2063 288.671 73.5168 279.853C91.4804 275.542 104.145 263.549 108.408 245.379C111.563 232.038 109.24 217.988 101.958 206.371C95.3238 195.738 86.1351 189.473 73.9875 186.707C73.6011 178.918 73.9534 168.561 73.9905 160.582C79.199 159.164 83.0829 157.819 87.7635 154.987C97.8448 148.767 105.087 138.844 107.938 127.346C112.609 107.756 104.488 87.1733 87.0235 76.8517C84.1672 75.1636 75.2711 72.0992 74.0869 70.1473Z"/><path fill="#FEFEFE" d="M177.088 174.563L319.817 174.775C319.667 181.822 316.629 225.757 318.41 228.587C319.103 229.688 320.248 230.547 321.517 230.856C322.948 231.205 325.028 230.894 326.154 229.884C327.085 229.048 327.336 227.877 327.54 226.707C328.54 220.954 328.319 214.58 328.553 208.736L329.872 174.693C355.788 174.306 383.566 174.512 409.502 174.795C409.685 187.166 408.04 201.483 407.795 213.993C407.679 219.917 406.587 228.104 407.806 233.7C410.926 238.108 416.393 236.043 416.878 230.648C417.416 224.652 417.666 218.747 417.954 212.736L419.538 175.079C468.369 174.138 518.818 174.769 567.75 174.806L846.351 174.944L846.136 661.162L387.823 661.213C389.139 649.043 390.146 636.842 390.845 624.622L405.084 420.753C407.365 388.646 410.262 355.646 412.101 323.582C445.28 325.283 456.846 332.289 484.601 348.459C481.728 341.414 478.938 332.983 476.289 325.706L453.046 260.551C438.42 259.026 418.82 258.881 403.655 258.228L326.176 254.596C310.975 253.919 294.758 253.634 279.672 252.528C271.614 271.368 261.93 290.211 253.65 309.016C250.05 317.193 245.562 325.751 242.507 334.091C248.922 331.328 255.089 327.975 261.712 325.246C279.436 317.945 298.316 316.012 317.27 318.496L303.812 518.832C300.687 565.784 296.689 614.525 294.306 661.398L177.267 661.485L177.088 174.563Z"/><path d="M688.563 258.543C708.016 258.604 727.469 258.493 746.92 258.21C758.098 258.079 771.759 258.285 782.676 257.656C758.703 289.721 734.497 321.611 710.061 353.324C696.009 371.21 682.289 389.336 667.939 406.996C666.357 408.943 664.319 411.53 662.994 413.604C646.325 436.91 627.924 461.608 612.074 485.205C599.215 502.656 586.56 520.256 574.109 538C564.486 551.768 552.194 570.038 541.949 583.014L449.66 583.271C452.731 579.969 458.495 571.933 461.419 568.074L487.113 533.706C515.895 495.632 544.367 457.326 572.527 418.79C576.17 414.568 583.889 403.175 587.448 398.263L622.597 349.519C628.884 341.743 635.401 332.428 641.314 324.272L672.793 280.552C677.479 274.036 683.729 264.36 688.563 258.543Z"/><path fill="red" d="M662.994 413.604C666.736 423.041 685.118 449.761 691.386 459.823L747.279 548.04C754.568 559.411 761.816 571.463 769.247 582.65C737.702 582.659 705.042 583.198 673.629 582.754C659.06 560.258 644.964 537.277 630.548 514.679C624.517 505.225 618.269 494.337 612.074 485.205C627.924 461.608 646.325 436.91 662.994 413.604Z"/><path fill="red" d="M471.167 258.376C502.314 258.11 533.463 258.11 564.611 258.376C574.92 273.383 584.656 289.27 594.323 304.689L622.597 349.519L587.448 398.263C583.889 403.175 576.17 414.568 572.527 418.79C561.929 400.47 548.669 380.533 537.162 362.54L500.763 304.862L483.106 277.711C479.21 271.753 474.351 264.635 471.167 258.376Z"/><path fill="#FEFEFE" d="M178.406 718.25L892.839 718.002C893.477 753.588 892.997 790.428 893.015 826.082L893.067 858.26C893.079 867.297 895.235 889.529 882.084 891.305C869.974 892.941 855 892.094 842.554 892.066L367.046 892.103L214.371 892.117L166.036 892.091C157.77 892.086 149.472 892.167 141.214 891.916C134.814 891.722 127.775 885.715 127.22 879.212C126.683 872.927 126.891 866.371 126.908 860.048L126.882 830.065L126.998 718.407C143.86 718.018 161.488 718.258 178.406 718.25Z"/><path d="M638.61 771.252C649.266 771.154 664.203 769.848 670.531 780.203C678.287 792.895 674.493 805.723 662.538 813.464C667.516 822.12 672.454 831.08 678.078 839.309L657.081 839.321L654.478 834.064C651.457 827.831 647.744 815.885 639.986 816.38C638.335 818.072 639.051 835.702 639.066 839.426L621.604 839.338L621.547 771.3L638.61 771.252Z"/><path fill="#FEFEFE" d="M639.048 784.657C644.258 784.506 649.224 784.273 653.698 787.495C658.55 790.99 657.207 796.176 653.859 800.224C649.47 803.022 644.069 802.509 639.021 802.469C638.983 796.532 638.992 790.594 639.048 784.657Z"/><path d="M557.508 771.138C568.843 771.074 594.788 769.213 602.658 775.841C619.172 789.749 613.294 814.08 590.625 817.512C585.767 817.677 580.483 817.565 575.591 817.557L575.473 839.33L557.362 839.364L557.508 771.138Z"/><path fill="#FEFEFE" d="M575.386 785.042C580.004 784.806 584.569 784.346 588.873 786.457C594.884 789.405 594.369 795.275 591.149 800.317C587.154 803.619 580.584 802.777 575.307 802.716L575.386 785.042Z"/><path d="M353.157 771.486C360.138 771.412 367.263 771.499 374.256 771.511C365.846 782.308 357.562 793.204 349.407 804.196L364.914 825.1C368.061 829.687 372.661 835.048 376.292 839.259L352.868 839.157C346.293 828.76 341.151 821.569 333.898 811.66L333.657 839.239L316.169 839.33L316.306 771.499L333.987 771.495C334.041 780.844 334.009 790.194 333.89 799.542C340.249 790.147 346.672 780.794 353.157 771.486Z"/><path fill="red" d="M485.002 771.282C491.391 771.502 498.895 771.299 505.368 771.281C509.303 778.116 512.959 784.32 517.216 790.949C520.051 784.489 524.263 777.547 527.885 771.456L548.762 771.399C542.002 782.735 534.271 793.482 527.571 804.98C534.553 816.2 542.49 827.805 549.882 838.795L549.362 839.505C542.164 838.919 534.769 839.056 527.547 839.115C523.935 832.398 520.065 825.823 515.947 819.404L504.28 838.952C497.249 838.89 490.218 838.954 483.189 839.143C491.296 826.761 498.347 817.4 505.615 804.287C500.719 797.527 488.758 778.337 485.002 771.282Z"/><path d="M382.484 771.286L425.579 771.437L425.577 785.943L400.493 785.941L400.476 797.561L423.609 797.585L423.556 811.694C415.964 811.951 408.15 811.783 400.536 811.705L400.487 816.375L400.506 824.566C409.275 824.83 418.047 824.951 426.82 824.928C426.93 829.653 426.895 834.555 426.928 839.297L382.585 839.507L382.484 771.286Z"/><path d="M760.246 770.141L760.973 770.102C771.748 769.584 780.979 773.276 788.972 780.471C785.815 784.126 783.458 786.888 779.902 790.203C774.732 786.566 763.519 780.82 757.745 786.697C757.12 787.333 756.922 788.94 757.122 789.816C758.025 794.239 764.931 796.803 769.329 797.958C786.283 802.408 795.409 815.76 784.359 831.896C780.41 837.661 772.717 839.813 765.414 840.503L764.345 840.501C752.272 840.438 744.538 837.866 735.971 829.219C739.74 825.575 743.632 822.06 747.642 818.682C753.121 823.489 763.803 828.996 771.036 823.279C772.702 821.735 770.858 817.853 769.555 816.825C760.213 809.46 742.164 810.491 739.787 795.332C737.443 780.385 746.184 772.339 760.246 770.141Z"/><path d="M822.09 770.663C832.634 769.724 840.844 774.095 848.747 780.444C846.385 783.431 841.233 788.904 838.425 791.346C833.732 788.267 830.053 784.682 824.016 784.274C820.482 784.035 815.932 786.271 816.348 790.445C817.028 796.29 825.123 797.858 829.587 799.038C839.852 801.751 849.397 805.927 848.652 818.308C848.279 824.495 846.845 829.891 842.07 834.264C835.045 840.699 826.989 840.797 818.154 840.449C807.488 838.619 802.079 836.136 794.47 828.356C797.527 824.436 800.373 820.704 803.741 817.028C809.733 822.757 812.848 826.656 822.265 826.551C825.026 826.52 827.503 826.429 829.552 824.28C830.551 823.231 832.259 820.959 831.725 819.535C828.897 811.99 812.68 812.418 806.06 806.662C802.095 803.699 799.471 800.016 798.91 794.856C797.182 778.95 808.74 772.464 822.09 770.663Z"/><path d="M686.521 771.107C700.674 771.039 714.827 771.103 728.978 771.299L728.973 785.312L704.244 785.161L704.212 796.603C711.205 796.641 718.199 796.734 725.191 796.881L725.149 810.884C718.315 810.952 710.658 811.085 703.908 810.539L703.891 818.1L703.871 824.577L729.906 824.508L729.899 839.243C715.676 839.006 700.725 839.258 686.481 839.438L686.521 771.107Z"/><path d="M281.451 770.629C291.123 769.474 301.595 771.453 307.254 780.208C304.248 785.152 301.926 789.19 297.857 793.291C294.886 789.161 291.391 785.385 285.511 786.044C266.87 788.134 267.161 830.106 289.574 824.592C294.521 823.375 296.386 820.938 298.938 817.082C300.799 818.885 302.11 820.676 303.698 822.706C310.229 833.523 302.244 837.845 292.238 840.155C283.805 842.053 274.963 840.508 267.674 835.862C248.223 823.386 248.874 788.111 268.108 775.783C272.777 772.791 276.069 771.682 281.451 770.629Z"/><path d="M162.626 771.396C179.817 771.192 197.289 771.387 214.5 771.428L214.456 786.014L197.78 785.982L197.766 821.524C197.769 827.399 197.726 833.274 197.635 839.149L179.106 839.181L178.991 786.058L162.65 786.005C162.569 781.135 162.561 776.265 162.626 771.396Z"/><path d="M433.327 771.42C449.838 771.287 466.35 771.259 482.862 771.336C483.015 776.126 482.971 781.203 483.01 786.018L466.982 786.047C466.726 798.48 466.98 811.765 467.01 824.261L467.031 839.256L449.129 839.268L449.159 785.998L433.139 785.975L433.327 771.42Z"/><path d="M227.078 771.252C231.936 771.214 236.794 771.25 241.651 771.36C241.75 779.285 242.111 837.797 241.023 839.392L238.625 839.525L223.471 839.5L223.552 797.36C223.543 790.335 223.181 778.967 223.772 772.226C224.912 771.074 224.953 771.452 227.078 771.252Z"/><path fill="red" d="M285.156 261.336C296.887 262.325 308.517 262.281 320.248 262.678C362.521 264.109 404.868 267.104 447.115 268.567C454.049 289.213 461.873 309.39 468.565 330.265C443.467 318.307 431.803 315.88 404.016 315.444C403.272 321.963 403.274 329.516 402.805 336.261L399.234 383.922L386.16 565.097C384.884 581.956 384.195 600.164 382.613 616.881C381.639 630.629 379.992 647.849 379.896 661.361C354.325 661.764 328.204 661.525 302.604 661.545C302.645 654.502 303.609 645.962 303.952 638.737C305.294 610.509 308.201 582.32 309.936 554.104L317.798 439.498C320.361 396.824 323.249 354.17 326.462 311.54C296.578 309.299 289.681 308.641 259.835 316.767C260.76 314.113 261.888 311.765 263.082 309.233C270.599 293.277 277.318 277.159 285.156 261.336Z"/><path fill="#FEFEFE" d="M141.725 131.14C150.529 130.625 161.413 130.937 170.416 130.941L220.841 130.926L378.842 130.915L846.497 130.954L846.472 162.061L791.25 161.989L439.202 161.934L275.866 161.675L208.517 161.538C196.77 161.515 184.376 161.457 172.997 161.497C151.871 161.181 161.762 179.905 156.716 192.499C153.397 200.786 143.991 203.327 136.011 199.988C124.592 195.211 126.796 181.662 126.567 171.654C126.887 163.333 125.969 154.431 126.725 146.159C127.462 138.101 134.815 133.091 141.725 131.14Z"/><path fill="#FEFEFE" d="M859.161 670.056C864.876 669.961 876.778 669.182 881.908 670.461C904.109 675.995 899.554 703.917 877.224 705.179C868.807 705.655 860.139 705.486 851.645 705.487L806.501 705.477L664.12 705.465L214.75 705.471L177.041 705.496L177.091 674.905L642.653 674.887L785.326 674.912L828.864 674.945C836.229 674.949 843.959 675.077 851.316 674.725C854.259 674.584 856.917 671.948 859.161 670.056Z"/><path fill="#FEFEFE" d="M140.211 599.102C143.138 598.794 145.931 598.988 148.709 600.005C152.344 601.335 155.676 604.017 157.201 607.653C159.399 612.892 159.279 685.345 157.21 690.055C155.223 694.579 151.023 697.039 146.618 698.744C143.71 699.091 141.067 698.883 138.298 697.856C134.261 696.358 130.733 693.28 129.081 689.251C126.974 684.111 127.321 623.079 127.95 613.957C128.102 611.75 128.325 609.579 129.329 607.571C131.578 603.068 135.642 600.702 140.211 599.102Z"/><path fill="#FEFEFE" d="M140.835 228.61C144.183 228.427 147.554 229.048 150.545 230.59C153.624 232.179 156.369 234.955 157.378 238.335C159.213 244.479 158.936 302.357 158.256 311.13C158.054 313.738 157.789 316.85 156.447 319.126C153.956 323.349 149.658 325.165 145.146 326.39C133.328 327.367 127.354 319.379 127.481 308.358C127.732 286.76 127.07 265.08 127.639 243.486C127.866 234.872 133.04 230.663 140.835 228.61Z"/><path fill="#FEFEFE" d="M140.275 352.079C143.13 351.832 145.776 351.946 148.473 353.021C152.446 354.604 156.016 357.805 157.529 361.878C159.194 366.361 158.938 426.05 158.407 434.5C158.274 436.624 158.126 439.284 157.188 441.209C154.984 445.729 151.263 448.077 146.63 449.611C143.001 449.772 139.875 449.638 136.512 448.114C133.41 446.707 129.919 443.623 128.774 440.328C126.674 434.282 127.017 376.422 127.696 367.281C127.873 364.9 128.097 362.432 129.225 360.286C131.515 355.931 135.767 353.55 140.275 352.079Z"/><path fill="#FEFEFE" d="M876.109 552.14C879.439 551.818 882.021 551.796 885.158 553.086C888.844 554.602 892.359 557.778 893.711 561.607C895.806 567.546 895.487 625.738 894.736 635.522C894.565 637.74 894.325 640.006 893.334 642.027C891.207 646.364 887.391 648.145 883.065 649.634C879.864 650.12 877.19 650.19 874.116 649.047C870.344 647.644 866.99 644.768 865.462 640.974C863.309 635.629 863.237 566.175 865.46 560.99C867.479 556.281 871.535 553.872 876.109 552.14Z"/><path fill="#FEFEFE" d="M878.289 182.141C880.537 182.1 882.923 182.438 885.011 183.285C888.704 184.784 892.068 187.919 893.456 191.713C895.776 198.052 895.103 258.228 894.43 266.713C894.242 269.092 894.006 271.739 892.895 273.879C890.622 278.258 886.729 280.297 882.194 281.627C875.198 281.835 866.411 279.238 865.351 271.098C863.686 258.315 864.782 244.595 864.553 231.631C864.349 220.079 864.476 208.089 864.986 196.541C865.584 188.179 870.503 183.755 878.289 182.141Z"/><path fill="#FEFEFE" d="M875.63 430.105C878.898 429.922 881.785 429.958 884.933 431.075C888.275 432.259 891.343 434.62 892.832 437.908C893.967 440.416 894.381 443.533 894.61 446.267C895.387 455.533 895.807 513.451 893.318 519.305C891.523 523.526 887.419 525.593 883.403 527.203C871.333 528.909 864.376 522.114 864.298 510.249C864.13 491.731 864.347 473.204 864.387 454.682C864.398 449.529 863.951 442.784 866.017 438.042C867.928 433.658 871.32 431.695 875.63 430.105Z"/><path fill="#FEFEFE" d="M140.3 476.077C143.784 475.791 146.702 476.086 149.892 477.632C153.272 479.271 156.414 482.229 157.585 485.882C159.358 491.415 158.982 548.999 158.315 557.492C158.126 559.896 157.9 562.338 156.726 564.492C154.304 568.938 150.566 570.973 145.84 572.326C142.45 572.649 139.177 572.343 136.053 570.9C133.118 569.544 130.112 566.824 129.044 563.698C126.759 557.014 127.061 501.323 127.739 491.582C127.91 489.126 128.121 486.48 129.248 484.256C131.533 479.747 135.673 477.513 140.3 476.077Z"/><path fill="#FEFEFE" d="M876.816 307.551C879.999 307.409 882.715 307.495 885.716 308.682C888.997 309.979 892.286 312.88 893.518 316.256C895.8 322.513 896.009 390.735 893.469 395.924C891.181 400.599 887.741 402.455 883.066 404.154C879.621 404.639 876.406 404.459 873.181 403.025C870.155 401.68 866.893 398.802 865.781 395.599C863.967 390.379 864.245 332.568 864.948 322.82C865.119 320.446 865.318 317.575 866.386 315.429C868.558 311.066 872.307 308.915 876.816 307.551Z"/><path fill="#FEFEFE" d="M864.516 131.043C874.445 131.007 884.373 131.032 894.302 131.117C894.469 139.852 895.815 147.545 889.782 154.177C880.101 161.412 867.608 158.924 864.891 146C864.02 141.859 864.475 135.425 864.516 131.043Z"/></svg>